<?xml version="1.0" standalone="no"?>
<!DOCTYPE svg PUBLIC "-//W3C//DTD SVG 20010904//EN"
 "http://www.w3.org/TR/2001/REC-SVG-20010904/DTD/svg10.dtd">
<svg version="1.0" xmlns="http://www.w3.org/2000/svg"
 width="225.000000pt" height="225.000000pt" viewBox="0 0 225.000000 225.000000"
 preserveAspectRatio="xMidYMid meet">
<metadata>
Created by potrace 1.11, written by Peter Selinger 2001-2013
</metadata>
<g transform="translate(0.000000,225.000000) scale(0.100000,-0.100000)"
fill="#000000" stroke="none">
<path d="M224 1938 c6 -54 43 -133 75 -162 12 -11 21 -23 21 -28 0 -12 -96 26
-141 57 -22 14 -39 22 -39 17 0 -17 67 -87 109 -113 56 -36 33 -38 -64 -5 -38
14 -71 23 -73 21 -9 -8 98 -87 142 -105 l51 -20 -60 6 c-33 4 -80 13 -105 20
-24 7 -46 12 -48 10 -7 -7 64 -55 111 -75 27 -12 60 -21 73 -21 13 0 24 -5 24
-11 0 -8 -20 -9 -62 -5 l-63 6 39 -24 c22 -14 57 -28 78 -31 50 -9 43 -15 -24
-24 l-53 -8 37 -16 c21 -10 53 -17 73 -17 48 0 44 -17 -6 -25 -56 -10 -37 -23
36 -27 l60 -3 -42 -22 c-23 -13 -49 -23 -57 -23 -8 0 -18 -5 -22 -11 -5 -9 12
-11 65 -7 39 3 71 3 71 1 0 -2 -26 -16 -57 -31 l-58 -27 43 -3 c24 -2 64 4 88
12 54 18 50 8 -13 -33 l-46 -31 32 0 c17 0 47 7 66 14 19 8 35 13 35 11 0 -2
-19 -23 -42 -45 l-43 -41 30 7 c17 4 38 11 48 16 32 17 29 2 -5 -27 l-33 -28
30 5 c17 3 39 8 50 13 14 5 10 -3 -13 -24 -29 -28 -30 -31 -12 -31 12 0 30 5
41 10 26 15 26 -6 -1 -22 -11 -7 -20 -16 -20 -19 0 -9 41 1 58 14 28 22 21 -2
-8 -27 -33 -27 -19 -37 21 -16 24 14 26 -5 2 -19 -27 -15 -10 -23 22 -11 34
13 69 5 45 -10 -27 -17 5 -32 59 -29 53 4 59 1 39 -19 -14 -14 -9 -15 72 -13
88 3 126 -29 143 -117 6 -30 5 -32 -18 -26 -19 5 -25 2 -25 -11 0 -9 -4 -14
-9 -10 -9 5 -41 -31 -41 -47 0 -5 9 -8 21 -8 11 0 29 -5 40 -11 16 -8 25 -7
38 6 17 14 19 14 35 -10 22 -33 30 -32 46 11 24 60 69 68 70 12 0 -10 5 -18
10 -18 6 0 10 -8 10 -17 1 -15 5 -13 23 8 21 23 25 24 44 12 19 -13 26 -12 59
5 l38 19 -26 26 c-14 14 -24 27 -22 29 2 2 -6 5 -18 5 -29 3 -30 6 -22 49 11
60 54 94 118 94 28 0 61 3 74 6 22 6 22 7 5 27 -17 19 -17 19 2 13 29 -8 104
-11 111 -3 4 4 1 14 -7 23 -15 18 -8 18 71 -2 24 -6 24 -5 -5 20 l-30 26 28
-10 c44 -16 52 -12 29 13 -30 31 -28 39 6 21 36 -18 63 -20 41 -1 -8 6 -21 20
-28 29 -11 15 -7 14 28 -3 56 -27 60 -24 21 16 -38 40 -37 41 15 19 43 -18 59
-11 27 12 -12 8 -26 23 -32 33 -9 18 -8 18 27 0 61 -31 71 -23 28 21 -21 22
-37 40 -35 40 3 0 23 -7 45 -15 22 -8 51 -14 65 -15 25 0 25 0 -5 19 -16 10
-41 30 -55 45 l-24 27 44 -20 c25 -11 65 -21 90 -21 l45 0 -52 30 c-50 29 -90
65 -45 41 11 -6 44 -11 73 -11 l52 0 -49 26 c-67 35 -77 47 -34 40 19 -3 51
-2 70 2 l34 8 -44 13 -45 14 60 12 c33 6 68 16 79 22 15 8 7 12 -45 18 l-64 8
50 12 c50 12 115 41 115 51 0 3 -19 2 -42 -1 -24 -4 -54 -2 -68 4 -25 10 -25
10 6 10 47 1 122 27 165 57 45 31 46 37 3 25 -17 -5 -64 -11 -105 -15 -59 -5
-69 -4 -49 5 14 6 46 20 72 32 26 11 61 34 78 52 l31 32 -53 -17 c-29 -10 -73
-21 -98 -25 l-45 -6 45 26 c48 28 96 70 110 95 6 11 -8 8 -48 -11 -31 -15 -73
-31 -92 -35 l-34 -7 33 39 c39 44 81 128 81 163 0 22 -3 20 -29 -16 -31 -43
-108 -111 -183 -162 -27 -18 -48 -31 -48 -29 0 2 11 25 25 52 25 50 33 128 16
171 -6 15 -9 10 -15 -25 -10 -63 -49 -129 -117 -196 l-59 -58 0 29 c0 17 -3
40 -6 53 -6 22 -7 22 -28 -12 -11 -19 -49 -60 -84 -91 -80 -73 -112 -120 -158
-234 -28 -71 -45 -99 -77 -126 -22 -19 -44 -35 -49 -35 -14 0 -9 -33 9 -52 9
-10 11 -18 5 -18 -7 0 -9 -13 -5 -37 4 -24 3 -34 -5 -29 -6 3 -13 -6 -17 -25
-6 -28 -8 -29 -21 -12 -13 17 -13 17 -14 -5 0 -13 -18 -41 -42 -65 -24 -24
-49 -52 -56 -62 -10 -17 -14 -17 -19 -5 -6 15 -100 110 -108 110 -2 0 -1 -7 2
-17 4 -11 3 -14 -5 -9 -7 4 -12 11 -12 16 0 5 -5 21 -11 37 -8 22 -12 25 -20
13 -8 -11 -9 -3 -6 28 3 23 1 40 -3 37 -19 -12 -18 14 1 31 19 17 19 19 3 31
-16 11 -15 13 7 21 l23 9 -24 13 c-55 28 -80 64 -105 145 -30 97 -67 159 -146
242 -33 34 -66 77 -73 95 l-14 33 -12 -30 c-6 -16 -9 -37 -7 -47 8 -30 -9 -20
-57 33 -58 64 -99 148 -100 204 -1 29 -4 41 -11 34 -17 -17 -12 -160 7 -196 9
-18 14 -33 11 -33 -2 0 -31 20 -63 45 -65 50 -133 123 -162 175 l-19 35 5 -47z"/>
<path d="M1077 1129 c7 -7 15 -10 18 -7 3 3 -2 9 -12 12 -14 6 -15 5 -6 -5z"/>
<path d="M1165 1130 c-3 -5 -2 -10 4 -10 5 0 13 5 16 10 3 6 2 10 -4 10 -5 0
-13 -4 -16 -10z"/>
<path d="M885 730 c-3 -5 -1 -10 4 -10 6 0 11 5 11 10 0 6 -2 10 -4 10 -3 0
-8 -4 -11 -10z"/>
</g>
</svg>
